<mxfile host="Electron" modified="2024-05-13T14:13:37.873Z" agent="Mozilla/5.0 (Windows NT 10.0; Win64; x64) AppleWebKit/537.36 (KHTML, like Gecko) draw.io/23.1.5 Chrome/120.0.6099.109 Electron/28.1.0 Safari/537.36" etag="5nU8R_x4eLUFflfOHcMq" version="23.1.5" type="device">
  <diagram name="Page-1" id="bPknO2kfw8Z8NfzmsMuK">
    <mxGraphModel dx="1808" dy="658" grid="1" gridSize="10" guides="1" tooltips="1" connect="1" arrows="1" fold="1" page="1" pageScale="1" pageWidth="850" pageHeight="1100" math="0" shadow="0">
      <root>
        <mxCell id="0" />
        <mxCell id="1" parent="0" />
        <mxCell id="kISH2zRv3QHNU1Csv-r9-3" value="" style="line;strokeWidth=4;direction=south;html=1;perimeter=backbonePerimeter;points=[];outlineConnect=0;" vertex="1" parent="1">
          <mxGeometry x="630" y="240" width="10" height="470" as="geometry" />
        </mxCell>
        <mxCell id="kISH2zRv3QHNU1Csv-r9-4" value="" style="line;strokeWidth=4;direction=south;html=1;perimeter=backbonePerimeter;points=[];outlineConnect=0;" vertex="1" parent="1">
          <mxGeometry x="240" y="240" width="10" height="460" as="geometry" />
        </mxCell>
        <mxCell id="kISH2zRv3QHNU1Csv-r9-5" value="&lt;b&gt;&lt;font style=&quot;font-size: 15px;&quot;&gt;Ground Station&lt;/font&gt;&lt;/b&gt;" style="text;html=1;align=center;verticalAlign=middle;resizable=0;points=[];autosize=1;strokeColor=none;fillColor=none;" vertex="1" parent="1">
          <mxGeometry x="690" y="310" width="130" height="30" as="geometry" />
        </mxCell>
        <mxCell id="kISH2zRv3QHNU1Csv-r9-6" value="" style="fontColor=#0066CC;verticalAlign=top;verticalLabelPosition=bottom;labelPosition=center;align=center;html=1;outlineConnect=0;fillColor=#CCCCCC;strokeColor=#6881B3;gradientColor=none;gradientDirection=north;strokeWidth=2;shape=mxgraph.networks.laptop;" vertex="1" parent="1">
          <mxGeometry x="680" y="390" width="160" height="110" as="geometry" />
        </mxCell>
        <mxCell id="kISH2zRv3QHNU1Csv-r9-8" value="" style="rounded=1;whiteSpace=wrap;html=1;strokeWidth=2;fillWeight=4;hachureGap=8;hachureAngle=45;fillColor=#1ba1e2;sketch=1;" vertex="1" parent="1">
          <mxGeometry x="50" y="369" width="80" height="212" as="geometry" />
        </mxCell>
        <mxCell id="kISH2zRv3QHNU1Csv-r9-9" value="&lt;b&gt;&lt;font style=&quot;font-size: 15px;&quot;&gt;Flight Computer&lt;/font&gt;&lt;/b&gt;" style="text;html=1;align=center;verticalAlign=middle;resizable=0;points=[];autosize=1;strokeColor=none;fillColor=none;" vertex="1" parent="1">
          <mxGeometry x="20" y="320" width="140" height="30" as="geometry" />
        </mxCell>
        <mxCell id="kISH2zRv3QHNU1Csv-r9-10" value="&lt;b&gt;&lt;font style=&quot;font-size: 19px;&quot;&gt;FLIGHT COMPUTER TELEMETRY CHECK PROCESS&lt;/font&gt;&lt;/b&gt;" style="text;html=1;align=center;verticalAlign=middle;resizable=0;points=[];autosize=1;strokeColor=none;fillColor=none;" vertex="1" parent="1">
          <mxGeometry x="190" y="120" width="500" height="40" as="geometry" />
        </mxCell>
        <mxCell id="kISH2zRv3QHNU1Csv-r9-11" value="" style="endArrow=classic;html=1;rounded=0;" edge="1" parent="1" target="kISH2zRv3QHNU1Csv-r9-3">
          <mxGeometry width="50" height="50" relative="1" as="geometry">
            <mxPoint x="243" y="340" as="sourcePoint" />
            <mxPoint x="630" y="340" as="targetPoint" />
          </mxGeometry>
        </mxCell>
        <mxCell id="kISH2zRv3QHNU1Csv-r9-12" value="" style="endArrow=classic;html=1;rounded=0;" edge="1" parent="1" target="kISH2zRv3QHNU1Csv-r9-4">
          <mxGeometry width="50" height="50" relative="1" as="geometry">
            <mxPoint x="637" y="530" as="sourcePoint" />
            <mxPoint x="250" y="530" as="targetPoint" />
          </mxGeometry>
        </mxCell>
        <mxCell id="kISH2zRv3QHNU1Csv-r9-13" value="(1) Send NA000 code to the flight computer" style="text;html=1;align=center;verticalAlign=middle;resizable=0;points=[];autosize=1;strokeColor=none;fillColor=none;" vertex="1" parent="1">
          <mxGeometry x="250" y="550" width="250" height="30" as="geometry" />
        </mxCell>
        <mxCell id="kISH2zRv3QHNU1Csv-r9-14" value="(2) The flight computer checks this code&amp;nbsp;" style="text;html=1;align=center;verticalAlign=middle;resizable=0;points=[];autosize=1;strokeColor=none;fillColor=none;" vertex="1" parent="1">
          <mxGeometry x="-30" y="590" width="240" height="30" as="geometry" />
        </mxCell>
        <mxCell id="kISH2zRv3QHNU1Csv-r9-16" value="(3) update error status table with &lt;br&gt;key=IS_TELEMETRY_INIT with value 1 to mean&amp;nbsp;&lt;br&gt;data received and telemetry is OK" style="text;html=1;align=center;verticalAlign=middle;resizable=0;points=[];autosize=1;strokeColor=none;fillColor=none;" vertex="1" parent="1">
          <mxGeometry x="-50" y="630" width="280" height="60" as="geometry" />
        </mxCell>
        <mxCell id="kISH2zRv3QHNU1Csv-r9-17" value="(4) The flight computer responds with NA000-OK to the&amp;nbsp;&lt;br&gt;ground station" style="text;html=1;align=center;verticalAlign=middle;resizable=0;points=[];autosize=1;strokeColor=none;fillColor=none;" vertex="1" parent="1">
          <mxGeometry x="290" y="345" width="320" height="40" as="geometry" />
        </mxCell>
        <mxCell id="kISH2zRv3QHNU1Csv-r9-18" value="(5)&amp;nbsp;" style="text;html=1;align=center;verticalAlign=middle;resizable=0;points=[];autosize=1;strokeColor=none;fillColor=none;" vertex="1" parent="1">
          <mxGeometry x="830" y="535" width="40" height="30" as="geometry" />
        </mxCell>
      </root>
    </mxGraphModel>
  </diagram>
</mxfile>
